<svg version="1.1" id="Layer_1" xmlns="http://www.w3.org/2000/svg" xmlns:xlink="http://www.w3.org/1999/xlink" x="0px" y="0px"
	 width="100%" viewBox="0 0 2000 1414" enable-background="new 0 0 2000 1414" xml:space="preserve">
<path fill="#030303" opacity="1.000000" stroke="none" 
	d="
M224.007629,785.993225 
	C228.163086,785.960022 226.577042,783.137329 226.584137,781.597534 
	C226.689880,758.602844 226.657379,735.607605 226.657852,712.612488 
	C226.658325,690.117310 226.659210,667.622070 226.659897,645.126892 
	C226.659943,643.496643 226.659897,641.866333 226.659897,640.085938 
	C244.720016,639.886292 262.382538,639.017578 279.237610,646.118896 
	C276.162689,651.194153 273.260651,655.984009 270.826477,660.001587 
	C262.881317,659.049683 255.084259,658.078796 247.276657,657.201538 
	C244.804520,656.923706 243.272461,657.579590 243.281952,660.698364 
	C243.408127,702.185608 243.426437,743.673157 243.478378,785.160645 
	C243.478561,785.307190 243.576706,785.453552 243.629089,785.600037 
	C276.130096,789.723389 305.469269,772.195618 319.080017,740.270630 
	C330.555756,713.353333 327.949310,687.418213 312.749786,661.818237 
	C317.240723,657.827637 321.905182,653.682800 326.858612,649.281250 
	C337.000519,661.772644 343.237335,675.421387 345.773224,690.502319 
	C351.524902,724.707275 342.001953,754.296082 316.439758,777.802856 
	C299.527679,793.355225 279.201874,802.030090 255.790848,802.100891 
	C233.997543,802.166748 212.203888,802.114929 190.158997,802.114929 
	C190.158997,739.278870 190.158997,676.702087 190.158997,613.966431 
	C190.566254,613.821777 190.996750,613.534424 191.426407,613.535706 
	C214.252701,613.602234 237.091644,613.266113 259.900330,613.944458 
	C273.229706,614.340820 285.943604,618.246826 297.892853,625.098083 
	C293.701019,628.783875 289.679016,632.320374 285.065216,636.377197 
	C274.796478,630.522583 262.043976,629.463928 248.913132,629.770691 
	C235.103546,630.093384 221.280594,629.843018 207.108582,629.843018 
	C207.108582,681.868042 207.108582,733.718384 207.108582,785.994507 
	C212.581253,785.994507 218.041992,785.994507 224.007629,785.993225 
z"/>
<path fill="#040404" opacity="1.000000" stroke="none" 
	d="
M1418.008179,739.187683 
	C1407.014648,739.133484 1396.020264,739.005127 1385.028687,739.124390 
	C1383.739014,739.138428 1381.799805,740.210938 1381.293701,741.312683 
	C1378.644287,747.081543 1376.098999,752.927734 1374.024414,758.922424 
	C1372.067505,764.576965 1373.715210,766.979736 1379.496826,768.311035 
	C1380.031250,768.434204 1380.513062,768.786133 1382.359009,769.682129 
	C1369.680420,769.682129 1358.503906,769.682129 1346.559570,769.682129 
	C1350.058838,768.201294 1353.286865,767.408752 1355.799072,765.614258 
	C1358.425049,763.738525 1361.172363,761.267334 1362.467407,758.419983 
	C1369.899170,742.080505 1376.838501,725.518005 1384.096558,709.098083 
	C1389.784180,696.230713 1395.765869,683.493347 1401.462891,670.629883 
	C1403.513916,665.998718 1405.115601,661.168518 1407.185791,655.738586 
	C1408.232910,657.497498 1409.322388,658.989685 1410.072021,660.636536 
	C1424.513794,692.366638 1438.942505,724.102783 1453.310181,755.866455 
	C1457.677979,765.522461 1462.176514,768.672607 1471.761230,768.364624 
	C1478.118286,768.160278 1482.643677,763.832947 1482.654907,757.471619 
	C1482.704102,729.478149 1482.738403,701.483704 1482.525269,673.491577 
	C1482.483521,668.026245 1481.317749,662.569519 1480.479004,655.494324 
	C1507.907227,681.602173 1534.480713,706.896362 1562.042236,733.131165 
	C1562.042236,729.466980 1562.042358,727.067078 1562.042358,724.667175 
	C1562.042358,708.670654 1562.042358,692.674194 1562.042236,676.677673 
	C1562.042114,665.481018 1561.552856,664.757690 1551.511719,661.113159 
	C1550.836670,660.868103 1550.159546,660.628967 1549.615356,659.778931 
	C1565.339844,659.778931 1581.064331,659.778931 1597.942505,659.778931 
	C1596.560425,660.582153 1596.229492,660.933655 1595.878418,660.955078 
	C1587.504761,661.465759 1584.562134,664.553528 1584.544922,673.155945 
	C1584.506104,692.484985 1584.480103,711.814331 1584.551758,731.143188 
	C1584.591309,741.804382 1584.780396,752.466125 1585.033447,763.124512 
	C1585.099365,765.897583 1585.658203,768.658875 1586.158936,772.826355 
	C1583.890381,771.312317 1582.269653,770.549988 1581.054321,769.370056 
	C1569.042114,757.708496 1557.200806,745.869202 1545.104370,734.296570 
	C1532.560425,722.295715 1519.787720,710.534058 1506.876953,698.048645 
	C1506.177979,697.647339 1505.716919,697.865173 1505.255859,698.083008 
	C1505.221436,717.911255 1505.138184,737.739746 1505.178955,757.567871 
	C1505.193359,764.536438 1507.899536,767.382202 1514.811035,768.346069 
	C1515.696289,768.469482 1516.552856,768.799194 1517.321289,769.681396 
	C1484.642090,769.681396 1451.962891,769.681396 1419.283813,769.681396 
	C1419.236694,769.440186 1419.189575,769.199036 1419.142456,768.957825 
	C1420.753052,768.488281 1422.544678,768.323608 1423.941284,767.494019 
	C1428.779175,764.620483 1427.277588,760.270508 1425.900879,756.344604 
	C1424.029541,751.008362 1421.690430,745.836060 1419.368408,739.985168 
	C1418.792725,739.313782 1418.400391,739.250732 1418.008179,739.187683 
M1407.749023,709.772644 
	C1405.700684,704.691467 1403.652222,699.610291 1401.230835,693.603516 
	C1395.671021,706.949890 1390.500488,719.362000 1385.185669,732.120361 
	C1396.010498,732.120361 1405.937012,732.120361 1416.451538,732.120361 
	C1413.525879,724.647400 1410.757568,717.576721 1407.749023,709.772644 
z"/>
<path fill="#050505" opacity="1.000000" stroke="none" 
	d="
M629.260864,740.216187 
	C620.707825,757.357483 606.584900,767.189758 588.526123,768.563232 
	C564.897461,770.360291 541.077026,769.637268 517.338806,769.977417 
	C516.960388,769.982910 516.578247,769.720459 515.264221,769.245728 
	C516.644653,768.752075 517.144592,768.473145 517.673157,768.399475 
	C525.120483,767.359802 528.957581,763.399292 528.982910,755.951721 
	C529.078003,727.976746 529.060913,700.001160 528.989014,672.026062 
	C528.973877,666.137146 526.046082,663.019470 520.360535,661.935791 
	C518.891724,661.655762 517.501404,660.963745 516.144470,659.636353 
	C517.685974,659.546997 519.227478,659.381653 520.769104,659.379944 
	C537.587585,659.361389 554.409180,659.168396 571.223572,659.429688 
	C585.627502,659.653503 599.765076,661.177307 612.230652,669.674255 
	C625.530579,678.740051 632.399414,691.189392 634.133301,707.119873 
	C635.380554,718.579773 633.965027,729.390198 629.260864,740.216187 
M560.532593,763.134460 
	C564.192993,763.133789 567.853638,763.104370 571.513733,763.137573 
	C587.291321,763.280701 598.189636,755.798035 604.050903,741.422791 
	C611.432617,723.318298 610.820496,704.964661 603.501770,687.029175 
	C599.282104,676.688171 591.761780,668.899780 580.315979,667.146179 
	C571.394897,665.779419 562.215393,666.098877 553.018677,665.662720 
	C553.018677,698.593567 553.018677,730.631897 553.018677,763.134460 
	C555.313843,763.134460 557.427063,763.134460 560.532593,763.134460 
z"/>
<path fill="#040404" opacity="1.000000" stroke="none" 
	d="
M294.622314,675.780823 
	C282.901093,702.802490 285.606171,728.233032 301.701538,753.127380 
	C297.052551,757.187378 292.377045,761.270569 287.410156,765.608154 
	C277.166534,752.352051 271.524139,737.946472 269.181244,722.304199 
	C264.338257,689.970459 274.388580,662.031738 296.494751,638.759766 
	C310.196838,624.335022 327.740692,615.099487 347.862305,614.256836 
	C373.561401,613.180603 399.339722,613.995728 425.333435,613.995728 
	C425.333435,630.423218 425.333435,647.497192 425.333435,664.789551 
	C419.700226,664.789551 414.255798,664.789551 408.281494,664.789551 
	C408.281494,653.473633 408.281494,642.085144 408.281494,629.990540 
	C383.371307,631.424683 358.494751,626.485962 334.961761,636.971863 
	C316.980072,644.984314 303.432251,657.654175 294.622314,675.780823 
z"/>
<path fill="#050505" opacity="1.000000" stroke="none" 
	d="
M1317.982666,748.367126 
	C1317.986084,741.593262 1318.537842,735.198669 1317.841187,728.942932 
	C1317.038696,721.735474 1318.086426,719.864624 1307.334473,717.648743 
	C1321.898193,717.648743 1336.462036,717.648743 1352.064087,717.648743 
	C1350.993774,718.234436 1350.609619,718.580750 1350.175537,718.662170 
	C1341.763062,720.241882 1341.310059,720.758179 1341.295288,729.086670 
	C1341.285400,734.753235 1340.822632,740.470642 1341.426636,746.072083 
	C1342.023193,751.605225 1339.273926,754.804443 1335.420288,757.684814 
	C1319.394653,769.663269 1301.170654,773.171204 1281.584473,771.976074 
	C1266.332886,771.045471 1253.256836,765.570496 1242.893311,754.307556 
	C1236.666992,747.540833 1232.719482,739.469482 1230.799316,730.401001 
	C1228.070557,717.514465 1228.006714,704.588623 1232.506958,692.251465 
	C1239.184692,673.944031 1252.727173,663.007141 1271.820923,659.126160 
	C1291.611694,655.103516 1310.869507,657.709717 1329.802490,664.070251 
	C1332.684692,665.038513 1333.930664,666.614258 1333.825928,669.846436 
	C1333.580688,677.416504 1333.747681,685.000000 1332.930298,692.863953 
	C1330.902954,688.622192 1329.358154,684.053589 1326.751587,680.203979 
	C1320.612061,671.136780 1312.079102,666.269836 1300.889893,664.749817 
	C1291.747559,663.507874 1283.463257,664.411316 1275.494629,668.598633 
	C1265.075073,674.073730 1259.941284,683.789856 1257.339111,694.473938 
	C1253.535767,710.089905 1253.752686,725.893188 1258.984863,741.332581 
	C1264.028320,756.214478 1274.189087,765.131653 1290.086060,765.822388 
	C1299.882935,766.247925 1312.949341,761.731384 1317.982666,748.367126 
z"/>
<path fill="#070707" opacity="1.000000" stroke="none" 
	d="
M1003.552612,760.840332 
	C1007.761536,757.432434 1012.171021,754.685059 1015.355408,750.905457 
	C1018.492798,747.181702 1020.389038,742.412231 1023.697083,738.328552 
	C1021.360474,748.774597 1019.023926,759.220703 1016.651917,769.825317 
	C989.132690,769.825317 961.716858,769.825317 933.452576,769.825317 
	C934.481262,769.044495 934.870667,768.503845 935.328735,768.437622 
	C943.386414,767.273926 946.984436,763.356750 946.998230,755.275818 
	C947.044556,728.124146 947.038330,700.972351 947.001343,673.820679 
	C946.990967,666.203491 945.128174,663.975891 937.606750,661.882141 
	C936.390930,661.543762 935.254028,660.921997 934.048645,659.359253 
	C935.709229,659.359253 937.369873,659.359314 939.030457,659.359253 
	C957.353699,659.358887 975.678894,659.510376 993.999146,659.277466 
	C1000.577820,659.193787 1007.144653,658.183960 1013.840454,657.585815 
	C1013.840454,666.044617 1013.840454,674.998657 1013.840454,683.952637 
	C1013.391724,683.992615 1012.942932,684.032654 1012.494202,684.072632 
	C1012.319275,681.894409 1012.473083,679.626343 1011.907043,677.555054 
	C1010.290527,671.640320 1003.741943,666.410278 997.450317,666.248108 
	C988.817322,666.025452 980.174255,666.192322 971.187683,666.192322 
	C971.187683,681.464294 971.187683,696.509583 971.187683,711.665161 
	C978.689636,711.665161 986.378174,712.467163 993.802002,711.410278 
	C999.697327,710.571045 1004.532104,706.864075 1004.198364,699.535156 
	C1004.168213,698.874695 1005.009888,698.174500 1006.066101,696.525635 
	C1006.066101,709.447205 1006.066101,721.411804 1006.066101,734.534058 
	C1005.016724,732.607300 1004.202087,731.740234 1004.078247,730.783752 
	C1003.180054,723.845154 998.563660,719.255737 991.356506,718.955200 
	C984.728027,718.678772 978.078857,718.896423 971.139648,718.896423 
	C971.139648,733.547241 971.139648,747.964600 971.139648,763.143982 
	C981.712097,762.459167 992.591919,764.841064 1003.552612,760.840332 
z"/>
<path fill="#060606" opacity="1.000000" stroke="none" 
	d="
M1775.993896,712.117432 
	C1782.272217,711.713440 1788.798828,713.892578 1793.235352,708.401611 
	C1795.842041,705.175293 1797.624878,701.283447 1799.572754,698.033813 
	C1799.572754,709.354736 1799.572754,721.473816 1799.572754,733.592834 
	C1797.589478,728.699707 1796.934937,723.227051 1791.316895,720.920532 
	C1789.169800,720.039062 1786.878784,719.068604 1784.620605,718.980957 
	C1777.993652,718.723694 1771.350098,718.889282 1764.449463,718.889282 
	C1764.449463,733.653687 1764.449463,748.068115 1764.449463,763.253540 
	C1775.495483,761.909180 1786.653076,765.470764 1797.511841,760.234314 
	C1805.941040,756.169556 1811.078247,749.796143 1814.122559,741.272461 
	C1814.558350,740.052612 1815.432739,738.989441 1817.148682,738.277832 
	C1815.308838,746.680542 1813.070557,755.022156 1811.768311,763.507385 
	C1810.893677,769.204773 1808.336670,770.240234 1802.975830,770.159668 
	C1779.817139,769.811401 1756.650269,770.010254 1733.486328,770.010010 
	C1731.799072,770.010010 1730.111694,770.010010 1728.424438,770.010010 
	C1739.070923,766.750061 1740.694824,762.071594 1740.631836,752.193909 
	C1740.469238,726.697998 1740.578369,701.200439 1740.577026,675.703491 
	C1740.576660,666.424255 1738.902100,664.100586 1730.021729,661.020142 
	C1729.457886,660.824585 1728.908325,660.588501 1728.394287,660.034668 
	C1754.771240,658.065491 1781.290527,661.579224 1807.531860,657.336487 
	C1807.531860,666.102234 1807.531860,674.913696 1807.531860,683.725159 
	C1807.287231,683.763977 1807.042603,683.802734 1806.797974,683.841492 
	C1806.280884,682.081970 1805.667725,680.344238 1805.263672,678.559143 
	C1803.664307,671.496033 1798.763794,666.628052 1791.699341,666.327698 
	C1782.746216,665.947021 1773.764526,666.235718 1764.490234,666.235718 
	C1764.490234,681.555664 1764.490234,696.608093 1764.490234,712.117432 
	C1768.251343,712.117432 1771.876953,712.117432 1775.993896,712.117432 
z"/>
<path fill="#060606" opacity="1.000000" stroke="none" 
	d="
M1188.000000,770.010681 
	C1168.496338,770.010681 1149.492676,770.010681 1130.488892,770.010681 
	C1140.937134,766.602600 1142.684204,762.501038 1142.625366,752.216064 
	C1142.479614,726.720581 1142.578247,701.223755 1142.577026,675.727478 
	C1142.576538,666.432434 1140.888794,664.080566 1132.046021,661.022705 
	C1131.476196,660.825623 1130.916260,660.600098 1130.390503,660.041870 
	C1156.762207,658.067078 1183.283081,661.577698 1209.545410,657.337097 
	C1209.545410,666.084595 1209.545410,674.903015 1209.545410,683.721436 
	C1209.284912,683.761292 1209.024536,683.801086 1208.764038,683.840881 
	C1208.352661,682.229919 1207.924438,680.623047 1207.532593,679.007263 
	C1205.535645,670.772095 1200.155151,666.299927 1191.733521,666.181458 
	C1183.429077,666.064636 1175.121460,666.155945 1166.500244,666.155945 
	C1166.500244,681.533691 1166.500244,696.585327 1166.500244,711.985046 
	C1174.065918,711.985046 1181.583496,712.598328 1188.945679,711.791870 
	C1194.880371,711.141663 1199.018677,706.760925 1200.356934,699.236633 
	C1200.478638,698.551941 1200.567627,697.861450 1201.565918,697.233154 
	C1201.565918,709.351929 1201.565918,721.470703 1201.565918,733.589539 
	C1199.553711,728.730591 1198.964355,723.221985 1193.329956,720.928040 
	C1191.179565,720.052551 1188.893311,719.069458 1186.635986,718.981445 
	C1180.007324,718.723145 1173.362061,718.889465 1166.454346,718.889465 
	C1166.454346,733.640686 1166.454346,748.054810 1166.454346,763.247131 
	C1177.484985,761.922913 1188.637451,765.460144 1199.497803,760.245605 
	C1207.937744,756.193237 1213.071289,749.802002 1216.103516,741.284058 
	C1216.417236,740.402710 1216.842651,739.542236 1217.347412,738.756531 
	C1217.567505,738.414124 1218.119873,738.285156 1219.285522,737.629211 
	C1217.308594,746.677063 1215.088501,755.013611 1213.774902,763.490662 
	C1212.897949,769.149475 1210.415283,770.688171 1204.985352,770.133057 
	C1199.542969,769.576599 1193.999268,770.010681 1188.000000,770.010681 
z"/>
<path fill="#060606" opacity="1.000000" stroke="none" 
	d="
M656.577637,721.999634 
	C656.577576,706.168518 656.579041,690.837463 656.577087,675.506348 
	C656.575867,666.598694 654.708130,663.969788 646.324341,661.041138 
	C645.654358,660.807190 644.996277,660.539185 642.985168,659.774902 
	C670.730408,658.086182 697.145325,661.569214 723.594849,657.323914 
	C723.594849,666.000244 723.594849,674.841797 723.594849,683.683289 
	C723.371094,683.752014 723.147278,683.820740 722.923523,683.889404 
	C722.419495,682.200195 721.837402,680.529724 721.425110,678.818420 
	C719.729736,671.782043 715.257446,666.852600 708.497131,666.462952 
	C699.245972,665.929810 689.940918,666.329773 680.423279,666.329773 
	C680.423279,681.566772 680.423279,696.493286 680.423279,711.878784 
	C688.181824,711.878784 696.033752,712.643677 703.644409,711.618164 
	C708.992920,710.897461 713.322693,707.339600 715.429199,697.180847 
	C715.429199,709.298218 715.429199,721.415588 715.429199,733.532959 
	C715.259521,733.589111 715.089844,733.645264 714.920166,733.701477 
	C714.323608,731.389954 713.995422,728.965210 713.076660,726.789734 
	C710.936340,721.721863 706.480591,719.376038 701.409668,719.034180 
	C694.495728,718.567993 687.526855,718.917908 680.400024,718.917908 
	C680.400024,733.816284 680.400024,748.230164 680.400024,763.297974 
	C691.632080,761.887634 702.853821,765.516174 713.687439,760.168884 
	C721.892395,756.118896 726.981079,749.844543 730.114136,741.564697 
	C730.587097,740.314697 731.295776,739.153870 733.010681,738.291504 
	C732.278687,742.131348 731.618408,745.986633 730.797852,749.807556 
	C729.561523,755.564697 728.342529,761.332764 726.807190,767.012695 
	C726.486633,768.198242 724.825928,769.879089 723.775452,769.884399 
	C697.615417,770.017822 671.454407,769.958069 645.293701,769.908691 
	C645.044373,769.908203 644.795715,769.585632 643.900818,768.966553 
	C646.149780,768.497131 648.090210,768.489319 649.625610,767.696655 
	C654.086853,765.393738 656.573486,761.663879 656.574280,756.494690 
	C656.576050,745.163025 656.576599,733.831360 656.577637,721.999634 
z"/>
<path fill="#060606" opacity="1.000000" stroke="none" 
	d="
M1638.068726,744.748047 
	C1647.466553,762.384827 1660.428833,765.936035 1672.083618,765.652588 
	C1698.923218,765.000000 1707.629150,746.600769 1712.483032,723.958679 
	C1712.881592,727.186401 1713.408936,730.404480 1713.650024,733.643921 
	C1714.055664,739.096924 1714.388672,744.561279 1714.492920,750.025818 
	C1714.515381,751.196655 1713.576538,752.489014 1712.835693,753.555298 
	C1704.978638,764.864197 1693.591919,770.431274 1680.390137,771.651855 
	C1663.868652,773.179382 1647.426147,772.080322 1632.505737,763.710876 
	C1618.904175,756.081299 1609.751953,744.568420 1607.568970,729.006836 
	C1606.228638,719.453064 1605.958740,709.399475 1607.408081,699.906189 
	C1608.750977,691.109497 1612.957153,682.971558 1619.584106,676.079102 
	C1636.049072,658.954468 1656.619751,655.894775 1678.612061,658.099121 
	C1687.620483,659.002014 1696.434814,661.852600 1705.333008,663.837219 
	C1708.932495,664.640137 1710.227661,666.759216 1710.065063,670.565491 
	C1709.749268,677.957336 1709.972778,685.372253 1708.788086,693.047424 
	C1708.214722,691.432251 1707.623047,689.823364 1707.070679,688.201050 
	C1702.787231,675.619751 1694.005737,667.302368 1681.203003,664.983887 
	C1658.524292,660.877014 1641.195679,669.802124 1634.529297,693.735596 
	C1629.774048,710.807922 1630.467407,727.939758 1638.068726,744.748047 
z"/>
<path fill="#060606" opacity="1.000000" stroke="none" 
	d="
M791.316162,732.698608 
	C781.663574,726.249329 772.373230,719.927979 762.943909,713.821228 
	C753.696228,707.831970 748.011780,699.497314 747.088196,688.577087 
	C745.889221,674.400330 757.482117,659.701233 771.597595,658.343506 
	C781.041687,657.435242 790.683044,658.610107 800.237183,658.797791 
	C804.208313,658.875854 808.182190,658.810730 812.473206,658.810730 
	C811.829651,666.772034 811.227173,674.224854 810.529175,682.860107 
	C809.296936,681.067200 808.148315,680.164307 808.100586,679.206482 
	C807.676575,670.693298 801.612000,667.116272 794.800537,665.509766 
	C789.456604,664.249451 783.456482,664.211853 778.043030,665.218262 
	C771.882629,666.363586 767.365967,670.982483 766.172241,677.260193 
	C765.006775,683.388977 768.404175,687.914612 773.533325,691.240540 
	C784.703003,698.483398 795.583374,706.199524 806.985168,713.051331 
	C826.759827,724.934631 823.980896,751.525085 811.470398,761.964478 
	C804.210510,768.022522 795.826660,771.489075 786.433044,771.858948 
	C774.314636,772.335999 762.113892,772.775879 750.968933,766.476135 
	C746.986389,764.225037 744.994263,761.459473 745.167053,756.351379 
	C745.393127,749.664307 745.757751,743.264587 749.241760,737.373657 
	C749.633667,736.710876 749.687378,735.848145 750.703613,735.518738 
	C751.463013,743.072815 753.043091,749.356140 757.228821,755.248779 
	C763.022339,763.404907 778.444397,767.919922 787.942139,764.646423 
	C795.194702,762.146729 800.915222,758.909851 802.522522,750.297485 
	C803.549438,744.794800 801.017761,741.215149 798.275208,737.614136 
	C796.706360,735.554260 793.878540,734.453186 791.316162,732.698608 
z"/>
<path fill="#060606" opacity="1.000000" stroke="none" 
	d="
M407.762756,784.012085 
	C407.762756,772.220886 407.762756,760.429626 407.762756,748.396118 
	C413.903717,748.396118 419.472107,748.396118 425.312836,748.396118 
	C425.312836,766.340698 425.312836,784.086975 425.312836,802.181824 
	C417.415985,802.181824 409.768677,802.215454 402.121796,802.175171 
	C383.802826,802.078735 365.470825,802.325867 347.170197,801.686462 
	C336.425995,801.311157 326.723206,796.433289 317.131439,791.900391 
	C316.452820,791.579773 315.981903,788.774475 316.506470,788.277710 
	C320.562958,784.436279 324.888611,780.879089 329.502075,776.914795 
	C342.044464,783.120667 355.691986,786.818481 370.765686,785.866394 
	C370.765686,766.301941 370.765686,746.718201 370.765686,726.804626 
	C376.901367,726.804626 382.610046,726.804626 388.581482,726.804626 
	C388.581482,746.173950 388.581482,765.300110 388.581482,785.126160 
	C394.573029,785.126160 400.332336,785.126160 406.818848,785.054810 
	C407.618286,784.659729 407.690521,784.335876 407.762756,784.012085 
z"/>
<path fill="#060606" opacity="1.000000" stroke="none" 
	d="
M1046.211182,705.999878 
	C1046.211182,695.341309 1046.213989,685.182678 1046.210327,675.024109 
	C1046.207153,666.553772 1044.451172,664.232117 1036.343262,661.721802 
	C1035.531006,661.470337 1034.870117,660.730347 1033.664307,659.883850 
	C1050.194702,659.883850 1066.046753,659.883850 1081.898804,659.883850 
	C1070.428345,662.152710 1069.872681,666.990906 1069.934448,675.283875 
	C1070.138794,702.760498 1070.011475,730.239624 1070.011475,757.717773 
	C1070.011475,759.352478 1070.011597,760.987183 1070.011597,762.557068 
	C1092.697388,765.066895 1113.561035,764.295410 1121.744995,736.428040 
	C1122.157593,737.040344 1122.570190,737.652588 1122.982666,738.264893 
	C1120.633423,748.733093 1118.284180,759.201355 1115.933105,769.677551 
	C1088.669678,769.677551 1061.521851,769.677551 1034.374023,769.677551 
	C1034.340820,769.484680 1034.307617,769.291870 1034.274292,769.098999 
	C1036.458374,768.338989 1038.927979,767.994873 1040.767090,766.732239 
	C1044.595581,764.103577 1046.294678,760.263184 1046.258179,755.460510 
	C1046.134155,739.141174 1046.211060,722.820251 1046.211182,705.999878 
z"/>
<path fill="#030303" opacity="1.000000" stroke="none" 
	d="
M872.927063,770.005066 
	C859.783936,770.005066 847.131348,770.005066 834.478760,770.005066 
	C844.795471,766.879333 846.692993,762.262817 846.637573,752.679749 
	C846.490356,727.201172 846.587769,701.721130 846.587402,676.241699 
	C846.587280,666.209778 845.536865,664.650879 836.340576,661.039856 
	C835.687622,660.783508 835.026123,660.548767 834.513184,659.719788 
	C850.259766,659.719788 866.006348,659.719788 881.752930,659.719788 
	C881.797668,659.973328 881.842407,660.226868 881.887085,660.480469 
	C880.618103,660.790222 879.347046,661.091736 878.080505,661.411194 
	C872.962219,662.702026 870.219543,666.025635 870.209961,671.266113 
	C870.157104,700.242554 870.111023,729.219543 870.241516,758.195496 
	C870.274414,765.494812 875.057312,768.453735 882.135376,768.662842 
	C882.026001,769.110229 881.916626,769.557678 881.807312,770.005066 
	C879.010742,770.005066 876.214172,770.005066 872.927063,770.005066 
z"/>
<path fill="#050505" opacity="1.000000" stroke="none" 
	d="
M374.993561,640.022278 
	C379.644684,640.022278 383.799377,640.022278 388.326233,640.022278 
	C388.326233,656.448120 388.326233,672.647766 388.326233,689.129456 
	C382.597321,689.129456 376.992371,689.129456 370.778198,689.129456 
	C370.778198,678.860229 370.778198,668.477722 370.778198,656.607544 
	C361.685699,657.936646 353.395416,659.148499 344.377472,660.466675 
	C342.117340,657.116028 339.083344,652.618042 335.684296,647.578857 
	C347.889832,640.746033 361.094116,639.912170 374.993561,640.022278 
z"/>
<path fill="#030303" opacity="1.000000" stroke="none" 
	d="
M390.999939,696.995422 
	C398.761017,696.995422 406.022095,696.995422 413.768250,696.995422 
	C413.768250,703.270081 413.940186,709.054993 413.618561,714.812439 
	C413.556610,715.921631 411.569336,717.827026 410.454315,717.838684 
	C392.200684,718.028870 373.944519,717.973633 355.350464,717.973633 
	C355.350464,710.986633 355.350464,704.277771 355.350464,696.995422 
	C367.031311,696.995422 378.765656,696.995422 390.999939,696.995422 
z"/>
</svg>