<?xml version="1.0" encoding="UTF-8" standalone="no"?>
<svg
   xmlns:dc="http://purl.org/dc/elements/1.1/"
   xmlns:cc="http://creativecommons.org/ns#"
   xmlns:rdf="http://www.w3.org/1999/02/22-rdf-syntax-ns#"
   xmlns:svg="http://www.w3.org/2000/svg"
   xmlns="http://www.w3.org/2000/svg"
   viewBox="0 0 1122.52 793.70135"
   height="793.70135"
   width="1122.52"
   xml:space="preserve"
   id="svg2"
   version="1.1"><metadata
     id="metadata8"><rdf:RDF><cc:Work
         rdf:about=""><dc:format>image/svg+xml</dc:format><dc:type
           rdf:resource="http://purl.org/dc/dcmitype/StillImage" /></cc:Work></rdf:RDF></metadata><defs
     id="defs6"><clipPath
       id="clipPath18"
       clipPathUnits="userSpaceOnUse"><path
         id="path16"
         d="M 0,595.276 H 841.89 V 0 H 0 Z" /></clipPath></defs><g
     transform="matrix(1.3333333,0,0,-1.3333333,0,793.70133)"
     id="g10"><g
       id="g12"><g
         clip-path="url(#clipPath18)"
         id="g14"><path
           id="path20"
           style="fill:#110f0d;fill-opacity:1;fill-rule:nonzero;stroke:none"
           d="m 502.516,280.858 h 98.785 v 34.638 h -98.785 z m 0,0 h 98.785 v 34.638 h -98.785 z m 0,0 h 98.785 v 34.638 h -98.785 z m 0,0 h 98.785 v 34.638 h -98.785 z m 0,0 h 98.785 v 34.638 h -98.785 z m 0,0 h 98.785 v 34.638 h -98.785 z m 0,0 h 98.785 v 34.638 h -98.785 z m 0,0 h 98.785 v 34.638 h -98.785 z m 0,0 h 98.785 v 34.638 h -98.785 z m 0,0 h 98.785 v 34.638 h -98.785 z m -52.783,45.463 c -0.049,0.259 -0.105,0.518 -0.161,0.777 0.063,-0.301 0.126,-0.602 0.182,-0.904 0,0.043 -0.014,0.085 -0.021,0.127 m 52.783,-45.463 h 98.785 v 34.638 h -98.785 z m 0,0 h 98.785 v 34.638 h -98.785 z m 0,0 h 98.785 v 34.638 h -98.785 z m 0,0 h 98.785 v 34.638 h -98.785 z m 0,0 h 98.785 v 34.638 h -98.785 z m 0,0 h 98.785 v 34.638 h -98.785 z m 0,0 h 98.785 v 34.638 h -98.785 z m 0,0 h 98.785 v 34.638 h -98.785 z m 0,0 h 98.785 v 34.638 h -98.785 z" /><path
           id="path22"
           style="fill:#110f0d;fill-opacity:1;fill-rule:nonzero;stroke:none"
           d="m 601.302,280.858 h -98.785 v 34.638 h 98.785 z" /><g
           transform="translate(449.754,326.194)"
           id="g24"><path
             id="path26"
             style="fill:#110f0d;fill-opacity:1;fill-rule:nonzero;stroke:none"
             d="M 0,0 C -0.056,0.301 -0.119,0.603 -0.182,0.904 -0.126,0.645 -0.07,0.385 -0.021,0.126 -0.014,0.084 0,0.042 0,0" /></g><g
           transform="translate(449.733,326.321)"
           id="g28"><path
             id="path30"
             style="fill:#110f0d;fill-opacity:1;fill-rule:nonzero;stroke:none"
             d="M 0,0 C -0.049,0.259 -0.105,0.518 -0.161,0.778 -0.098,0.476 -0.035,0.175 0.021,-0.126 0.021,-0.084 0.007,-0.042 0,0" /></g><g
           transform="translate(488.995,297.112)"
           id="g32"><path
             id="path34"
             style="fill:#110f0d;fill-opacity:1;fill-rule:nonzero;stroke:none"
             d="m 0,0 c 0,-42.758 -16.478,-81.642 -43.389,-110.57 -7.594,-8.162 -16.015,-15.525 -25.13,-21.964 -12.254,-8.659 -25.761,-15.644 -40.194,-20.611 -16.345,-5.64 -33.888,-8.695 -52.132,-8.695 h -108.566 v 323.68 h 108.566 c 18.244,0 35.787,-3.055 52.132,-8.695 8.849,-3.047 17.347,-6.845 25.425,-11.328 -7.567,-6.159 -14.524,-13.025 -20.759,-20.472 -14.979,8.323 -31.962,12.667 -49.26,12.667 h -87.379 v -268.017 h 34.035 v 250.516 h 28.249 c 42.583,0 62.375,-10.783 62.375,-10.783 -12.247,-15.42 -15.428,-26.539 -15.428,-26.539 -11.013,7.868 -32.683,8.022 -46.471,7.161 v -220.355 h 18.482 c 24.087,0 47.62,7.672 66.831,22.209 0.126,0.098 0.259,0.197 0.385,0.295 8.73,6.655 16.661,14.306 23.625,22.776 20.086,24.423 32.144,55.698 32.144,89.79 0,0.89 -0.007,1.786 -0.029,2.669 -0.014,0.799 -0.035,1.591 -0.063,2.382 -0.007,0.175 -0.007,0.344 -0.021,0.512 -0.014,0.406 -0.028,0.812 -0.049,1.212 -0.084,1.758 -0.196,3.503 -0.343,5.24 -0.028,0.302 -0.049,0.596 -0.077,0.897 -0.014,0.154 -0.028,0.308 -0.042,0.462 -0.049,0.554 -0.105,1.1 -0.168,1.647 -0.063,0.644 -0.14,1.289 -0.217,1.934 -0.119,1.015 -0.246,2.017 -0.393,3.019 -0.07,0.526 -0.147,1.051 -0.231,1.57 -0.084,0.539 -0.168,1.085 -0.259,1.625 -0.098,0.63 -0.21,1.254 -0.322,1.878 -0.077,0.455 -0.162,0.91 -0.253,1.366 -0.098,0.532 -0.203,1.072 -0.315,1.604 0,0.042 -0.014,0.084 -0.021,0.126 -0.049,0.259 -0.105,0.519 -0.161,0.778 -0.133,0.658 -0.273,1.324 -0.427,1.983 -0.085,0.399 -0.176,0.805 -0.274,1.205 -0.035,0.168 -0.077,0.336 -0.119,0.504 -0.168,0.722 -0.336,1.443 -0.525,2.158 -0.323,1.296 -0.673,2.585 -1.037,3.867 -0.175,0.631 -0.357,1.261 -0.547,1.885 -0.28,0.953 -0.574,1.899 -0.882,2.844 -0.127,0.407 -0.26,0.82 -0.407,1.226 -0.946,2.88 -1.989,5.717 -3.124,8.506 -0.274,0.679 -0.554,1.352 -0.841,2.018 -0.287,0.686 -0.582,1.366 -0.883,2.045 -0.666,1.514 -1.359,3.013 -2.081,4.491 -0.126,0.273 -0.266,0.554 -0.406,0.827 -0.939,1.913 -1.92,3.79 -2.943,5.647 -0.252,0.462 -0.511,0.932 -0.77,1.387 -0.379,0.659 -0.757,1.317 -1.142,1.976 -0.007,0.014 -0.007,0.021 -0.021,0.028 -0.372,0.637 -0.75,1.275 -1.135,1.905 -0.028,0.056 -0.063,0.106 -0.091,0.148 -0.386,0.637 -0.778,1.268 -1.177,1.898 -0.414,0.652 -0.827,1.303 -1.247,1.948 7.398,8.225 15.77,15.567 24.885,21.838 C -12.94,72.744 0,37.889 0,0" /></g><g
           transform="translate(449.754,326.194)"
           id="g36"><path
             id="path38"
             style="fill:#110f0d;fill-opacity:1;fill-rule:nonzero;stroke:none"
             d="M 0,0 C -0.056,0.301 -0.119,0.603 -0.182,0.904 -0.126,0.645 -0.07,0.385 -0.021,0.126 -0.014,0.084 0,0.042 0,0" /></g><path
           id="path40"
           style="fill:#110f0d;fill-opacity:1;fill-rule:nonzero;stroke:none"
           d="m 601.302,280.858 h -98.785 v 34.638 h 98.785 z" /><g
           transform="translate(622.306,459.716)"
           id="g42"><path
             id="path44"
             style="fill:#110f0d;fill-opacity:1;fill-rule:nonzero;stroke:none"
             d="m 0,0 v -89.621 h -29.573 v 60.273 h -69.78 c -28.522,0 -55.011,-8.541 -76.919,-23.148 -8.961,-5.97 -17.151,-12.955 -24.409,-20.78 -21.978,-23.716 -35.374,-55.18 -35.374,-89.706 0,-0.441 0,-0.883 0.007,-1.324 l 0.021,-1.324 c 0.007,-0.315 0.014,-0.638 0.021,-0.96 0.07,-2.48 0.203,-4.946 0.406,-7.391 0.063,-0.701 0.126,-1.402 0.197,-2.102 0.084,-0.848 0.175,-1.696 0.273,-2.543 0.077,-0.645 0.161,-1.29 0.252,-1.927 0.049,-0.378 0.098,-0.764 0.154,-1.142 0.098,-0.694 0.203,-1.387 0.315,-2.081 0.112,-0.707 0.232,-1.408 0.358,-2.109 0.168,-0.988 0.357,-1.968 0.553,-2.942 0.077,-0.4 0.161,-0.799 0.245,-1.191 0.084,-0.4 0.169,-0.799 0.26,-1.191 0.07,-0.351 0.147,-0.694 0.231,-1.044 0.119,-0.519 0.238,-1.037 0.364,-1.556 0.764,-3.173 1.647,-6.305 2.648,-9.388 0.183,-0.588 0.379,-1.17 0.575,-1.751 0.112,-0.336 0.231,-0.673 0.343,-1.002 0.231,-0.666 0.463,-1.324 0.708,-1.983 0.238,-0.658 0.483,-1.317 0.735,-1.975 0.701,-1.822 1.437,-3.616 2.214,-5.395 0.267,-0.61 0.54,-1.212 0.806,-1.815 0.119,-0.266 0.238,-0.532 0.364,-0.798 0.302,-0.645 0.603,-1.289 0.911,-1.934 0.364,-0.75 0.729,-1.499 1.107,-2.242 0.378,-0.743 0.764,-1.478 1.149,-2.214 0.287,-0.539 0.575,-1.079 0.869,-1.618 0.28,-0.512 0.56,-1.023 0.855,-1.535 0.287,-0.511 0.574,-1.016 0.868,-1.52 0,-0.007 0.007,-0.007 0.007,-0.014 0.169,-0.287 0.344,-0.581 0.512,-0.869 0.245,-0.406 0.49,-0.819 0.735,-1.226 0.379,-0.616 0.757,-1.226 1.135,-1.835 0.414,-0.652 0.827,-1.296 1.248,-1.941 0.539,-0.834 1.092,-1.653 1.653,-2.473 0.413,-0.596 0.827,-1.191 1.247,-1.78 -6.978,-8.589 -15.42,-16.002 -24.893,-21.648 -20.317,27.351 -32.396,61.555 -32.396,98.687 0,43.753 16.766,83.456 44.048,112.65 6.83,7.329 14.334,13.984 22.391,19.876 25.684,18.798 57.057,29.839 90.939,29.839 3.159,0 6.291,-0.098 9.402,-0.287 z" /></g><g
           transform="translate(528.544,413.14)"
           id="g46"><path
             id="path48"
             style="fill:#110f0d;fill-opacity:1;fill-rule:nonzero;stroke:none"
             d="m 0,0 c -42.821,0 -59.678,-13.045 -59.678,-13.045 11.308,-14.237 15.995,-23.8 15.995,-23.8 11.07,7.91 32.375,8.078 43.858,7.504 V -84.073 H 30.301 V 0 Z" /></g><g
           transform="translate(558.845,413.14)"
           id="g50"><path
             id="path52"
             style="fill:#110f0d;fill-opacity:1;fill-rule:nonzero;stroke:none"
             d="m 0,0 v -84.073 h -30.126 v 54.732 c -11.483,0.574 -32.788,0.406 -43.858,-7.504 0,0 -4.687,9.563 -15.995,23.8 0,0 16.857,13.045 59.678,13.045 z" /></g><path
           id="path54"
           style="fill:#110f0d;fill-opacity:1;fill-rule:nonzero;stroke:none"
           d="m 601.302,280.858 h -98.785 v 34.638 h 98.785 z" /><g
           transform="translate(449.754,326.194)"
           id="g56"><path
             id="path58"
             style="fill:#110f0d;fill-opacity:1;fill-rule:nonzero;stroke:none"
             d="M 0,0 C -0.056,0.301 -0.119,0.603 -0.182,0.904 -0.126,0.645 -0.07,0.385 -0.021,0.126 -0.014,0.084 0,0.042 0,0" /></g><g
           transform="translate(622.306,227.822)"
           id="g60"><path
             id="path62"
             style="fill:#110f0d;fill-opacity:1;fill-rule:nonzero;stroke:none"
             d="m 0,0 v -92.55 h -111.62 c -2.74,0 -5.465,0.07 -8.17,0.217 -0.896,0.049 -1.786,0.105 -2.676,0.168 -0.168,0.007 -0.336,0.021 -0.497,0.035 -1.535,0.112 -3.055,0.246 -4.575,0.407 -0.463,0.042 -0.918,0.091 -1.373,0.147 -2.474,0.273 -4.926,0.609 -7.357,1.002 -0.406,0.07 -0.82,0.14 -1.226,0.21 -0.441,0.077 -0.883,0.154 -1.324,0.231 -0.476,0.084 -0.939,0.175 -1.408,0.266 -0.105,0.014 -0.21,0.035 -0.315,0.063 -0.456,0.077 -0.904,0.169 -1.353,0.26 -0.756,0.147 -1.499,0.301 -2.242,0.469 -0.315,0.07 -0.63,0.14 -0.938,0.203 -0.099,0.021 -0.204,0.042 -0.302,0.07 -0.651,0.14 -1.303,0.295 -1.954,0.456 -0.869,0.203 -1.738,0.42 -2.593,0.644 -0.294,0.07 -0.581,0.147 -0.868,0.224 -0.484,0.126 -0.967,0.253 -1.444,0.393 -0.49,0.133 -0.98,0.273 -1.464,0.413 -0.525,0.14 -1.051,0.294 -1.569,0.455 -0.526,0.155 -1.044,0.309 -1.563,0.477 -0.588,0.182 -1.177,0.364 -1.765,0.553 -0.624,0.197 -1.24,0.4 -1.85,0.61 -0.511,0.175 -1.023,0.35 -1.534,0.525 -1.051,0.358 -2.088,0.729 -3.111,1.121 -0.476,0.175 -0.939,0.351 -1.408,0.533 -1.52,0.574 -3.027,1.184 -4.519,1.814 -0.308,0.126 -0.609,0.253 -0.911,0.393 -0.784,0.329 -1.569,0.665 -2.34,1.023 -0.595,0.259 -1.184,0.532 -1.772,0.805 -0.021,0.007 -0.035,0.014 -0.049,0.021 -0.575,0.267 -1.142,0.533 -1.71,0.813 -0.063,0.021 -0.126,0.049 -0.182,0.084 -0.371,0.175 -0.742,0.357 -1.114,0.54 -2.088,1.015 -4.14,2.08 -6.165,3.201 -0.428,0.225 -0.855,0.463 -1.275,0.701 -0.393,0.21 -0.778,0.434 -1.163,0.651 -0.365,0.211 -0.722,0.421 -1.086,0.631 -0.112,0.056 -0.217,0.119 -0.315,0.182 8.953,6.719 17.101,14.51 24.198,23.162 0.862,-0.462 1.724,-0.911 2.6,-1.352 0.434,-0.224 0.868,-0.441 1.31,-0.659 0.441,-0.217 0.883,-0.434 1.324,-0.644 3.09,-1.492 6.242,-2.866 9.458,-4.127 0.393,-0.154 0.785,-0.308 1.184,-0.455 0.708,-0.273 1.415,-0.54 2.13,-0.792 0.035,-0.014 0.063,-0.028 0.098,-0.035 0.715,-0.266 1.436,-0.518 2.158,-0.763 0.469,-0.162 0.939,-0.323 1.408,-0.477 0.827,-0.273 1.654,-0.539 2.494,-0.799 3.335,-1.036 6.726,-1.947 10.166,-2.732 0.448,-0.105 0.897,-0.203 1.345,-0.301 1.647,-0.357 3.3,-0.687 4.968,-0.988 0.483,-0.091 0.973,-0.175 1.457,-0.252 1.002,-0.168 2.004,-0.33 3.012,-0.477 6.663,-0.98 13.494,-1.485 20.437,-1.485 2.165,0 4.323,0.049 6.467,0.147 V 37.363 H -62.76 V -63.195 h 32.634 V 0 Z" /></g></g></g></g></svg>